<svg viewBox="0 0 17 16" xmlns="http://www.w3.org/2000/svg"><g fill="#434343" fill-rule="evenodd" transform="translate(2)"><ellipse cx="6.43" cy="2.421" rx="6.43" ry="2.421"/><path d="m8.575 11.832 1.014-1.013c-.931.159-1.997.261-3.126.261-3.516 0-6.447-.98-6.447-1.636v3.269c0 1.188 2.887 2.146 6.447 2.146.928 0 1.809-.066 2.605-.184l1.176-1.176z"/><path d="m6.494 9.919c3.561 0 6.447-.982 6.447-2.196v-3.346c0 .672-2.932 1.674-6.447 1.674s-6.447-1.002-6.447-1.674v3.346c0 1.214 2.887 2.196 6.447 2.196z"/><path d="m14.991 11.799-.816-.816-1.702 1.703-1.668-1.667-.815.813 1.668 1.668-1.685 1.686.814.816 1.687-1.687 1.702 1.703.815-.814-1.703-1.702z"/></g></svg>